<svg width="296" height="49" viewBox="0 0 296 49" fill="none" xmlns="http://www.w3.org/2000/svg">
<g clip-path="url(#clip0_115_1944)">
<g clip-path="url(#clip1_115_1944)">
<g clip-path="url(#clip2_115_1944)">
<g clip-path="url(#clip3_115_1944)">
<path d="M105.211 20.1641H113.354C114.153 20.1641 114.553 21.5596 114.553 24.3505C114.553 25.1878 114.461 26.1726 114.275 27.3049C114.082 28.4452 113.733 29.0153 113.228 29.0153H105.211V34.9958H116.825C117.541 34.9958 118.025 35.873 118.277 37.6273C118.403 38.3848 118.467 39.1902 118.467 40.0434C118.467 40.9046 118.34 42.013 118.088 43.3686C117.835 44.7242 117.415 45.4019 116.825 45.4019H95.2386C93.6395 45.4019 92.84 44.784 92.84 43.548V5.09318C92.84 4.05656 93.3239 3.53825 94.2918 3.53825H116.889C117.772 3.53825 118.214 5.30051 118.214 8.82504C118.214 12.3575 117.772 14.1238 116.889 14.1238H105.211V20.1641ZM139.612 15.2601V3.89708C139.612 3.29903 141.274 3 144.598 3C145.734 3 147.047 3.07177 148.537 3.2153C150.035 3.35086 150.784 3.53825 150.784 3.77747V35.2949H152.993C154.045 35.2949 154.739 36.1919 155.076 37.9861C155.16 38.5044 155.202 39.2141 155.202 40.1152C155.202 41.0083 154.908 42.0927 154.318 43.3686C153.477 45.1229 152.13 46 150.279 46C148.89 46 147.657 45.7408 146.58 45.2225C145.511 44.7042 144.787 44.166 144.409 43.6078L143.841 42.8303C141.526 44.9434 138.623 46 135.13 46C131.638 46 128.65 44.6245 126.167 41.8734C123.684 39.1224 122.443 35.2829 122.443 30.3549C122.443 25.435 123.748 21.6274 126.356 18.9321C128.965 16.2449 132.227 14.9013 136.14 14.9013C137.276 14.9013 138.433 15.0209 139.612 15.2601ZM137.529 24.4701C135.172 24.4701 133.994 26.4835 133.994 30.5104C133.994 32.5438 134.331 34.007 135.004 34.9001C135.677 35.8012 136.422 36.2517 137.238 36.2517C138.063 36.2517 138.854 35.9128 139.612 35.2351V25.0682C138.896 24.6694 138.202 24.4701 137.529 24.4701ZM158.989 33.5007V15.8581C158.989 15.4196 160.799 15.2003 164.418 15.2003C168.036 15.2003 169.846 15.4196 169.846 15.8581V33.3213C169.846 35.3148 170.515 36.3115 171.853 36.3115C172.871 36.3115 174.012 35.8929 175.274 35.0556V15.8581C175.274 15.4594 177.063 15.2601 180.639 15.2601C184.216 15.2601 186.004 15.4594 186.004 15.8581V35.4743H187.633C189.072 35.4743 189.792 36.7701 189.792 39.3616C189.792 40.6773 189.493 42.013 188.895 43.3686C188.054 45.1229 186.922 46 185.5 46C182.68 46 180.597 44.9036 179.251 42.7107L179.188 42.7705C176.612 44.9235 173.852 46 170.906 46C166.833 46 163.828 45.0312 161.893 43.0935C159.957 41.1637 158.989 37.9662 158.989 33.5007ZM208.147 23.872V45.0431C208.147 45.5216 206.379 45.7608 202.845 45.7608C198.637 45.6013 196.533 45.3421 196.533 44.9833V23.8122H193.314C192.472 23.8122 192.051 22.4367 192.051 19.6857C192.051 18.968 192.127 18.0909 192.279 17.0542C192.422 16.0176 192.725 15.4993 193.187 15.4993H196.533V10.2364C196.533 9.43904 198.313 9.04034 201.873 9.04034C205.424 9.04034 207.2 9.3593 207.2 9.99722V13.8248L207.263 15.4993H212.628C213.344 15.4993 213.701 16.8948 213.701 19.6857C213.701 22.4766 213.344 23.872 212.628 23.872H208.147ZM228.408 15.6787V45.0431C228.408 45.3621 226.485 45.5216 222.639 45.5216C218.785 45.5216 216.857 45.382 216.857 45.1029V15.7385C216.857 15.4594 218.785 15.3199 222.639 15.3199C226.485 15.3199 228.408 15.4395 228.408 15.6787ZM228.408 3.35883V12.1502C228.408 12.4293 226.485 12.5688 222.639 12.5688C218.785 12.5688 216.857 12.4492 216.857 12.21V3.59805C216.857 3.19935 218.785 3 222.639 3C226.485 3 228.408 3.11961 228.408 3.35883ZM236.828 41.8734C234.203 39.1224 232.89 35.3148 232.89 30.4506C232.89 25.5865 234.203 21.7789 236.828 19.0278C239.462 16.2768 243.01 14.9013 247.47 14.9013C251.931 14.9013 255.465 16.2768 258.074 19.0278C260.683 21.7789 261.988 25.5865 261.988 30.4506C261.988 35.3148 260.683 39.1224 258.074 41.8734C255.465 44.6245 251.931 46 247.47 46C243.01 46 239.462 44.6245 236.828 41.8734ZM247.496 24.8887C245.122 24.8887 243.936 26.7228 243.936 30.3908C243.936 34.0589 245.122 35.8929 247.496 35.8929C249.877 35.8929 251.068 34.0589 251.068 30.3908C251.068 26.7228 249.877 24.8887 247.496 24.8887ZM279.661 25.8456V45.0431C279.661 45.3222 278.146 45.4618 275.117 45.4618C270.909 45.3421 268.805 45.1229 268.805 44.8039V25.427H267.164C266.069 25.427 265.354 24.5498 265.018 22.7956C264.933 22.2772 264.891 21.7589 264.891 21.2406C264.891 20.0046 265.144 18.7687 265.649 17.5327C266.406 15.7784 267.584 14.9013 269.183 14.9013C270.782 14.9013 272.213 15.2601 273.476 15.9777C274.738 16.6954 275.579 17.4131 276 18.1307C278.651 15.9777 281.807 14.9013 285.468 14.9013C289.129 14.9013 291.78 15.8382 293.421 17.7121C295.062 19.586 295.883 22.656 295.883 26.9221V44.8637C295.883 45.3421 294.082 45.5814 290.48 45.5814C286.886 45.5814 285.09 45.3421 285.09 44.8637V27.58C285.09 25.5865 284.353 24.5897 282.88 24.5897C282.46 24.5897 281.87 24.7572 281.113 25.0921C280.356 25.435 279.872 25.6861 279.661 25.8456Z" fill="#00A9DE"/>
</g>
</g>
</g>
</g>
<g clip-path="url(#clip4_115_1944)">
<g clip-path="url(#clip5_115_1944)">
<path d="M38.3762 5.64589C35.7489 3.37724 20.6522 -4.50371 0 3.52679C0 3.64753 0 5.87365 0 9.26599V47.58H31.2907C32.3646 48.4107 34.9174 49 37.9065 49C40.8895 49 43.4484 48.4107 44.5261 47.58H76V9.26599C76 5.87365 76 3.64753 76 3.52679C56.1982 -4.35141 40.375 3.9823 38.3762 5.64589ZM35.5703 44.8373C35.5703 43.3273 20.8802 34.5024 3.91856 44.1314V6.77576C7.27776 5.03602 11.796 3.97064 16.7831 3.97064C27.1639 3.97064 35.5703 7.04536 35.5703 12.7489V44.8373ZM72.3239 44.1314C55.3622 34.5024 40.6813 43.3273 40.6813 44.8373V12.7496C40.6813 7.04605 49.0884 3.97133 59.4586 3.97133C64.4457 3.97133 68.9639 5.03671 72.3239 6.77644V44.1314Z" fill="#00A9DE"/>
</g>
</g>
<defs>
<clipPath id="clip0_115_1944">
<rect width="203.056" height="43" fill="white" transform="translate(92.8333 3)"/>
</clipPath>
<clipPath id="clip1_115_1944">
<rect width="203.056" height="43" fill="white" transform="translate(92.8333 3)"/>
</clipPath>
<clipPath id="clip2_115_1944">
<rect width="203.056" height="43" fill="white" transform="translate(92.8333 3)"/>
</clipPath>
<clipPath id="clip3_115_1944">
<rect width="203.056" height="43" fill="white" transform="translate(92.8333 3)"/>
</clipPath>
<clipPath id="clip4_115_1944">
<rect width="76" height="49" fill="white"/>
</clipPath>
<clipPath id="clip5_115_1944">
<rect width="76" height="49" fill="white"/>
</clipPath>
</defs>
</svg>
