<svg width="50" height="32" viewBox="0 0 50 32" fill="none" xmlns="http://www.w3.org/2000/svg">
<g clip-path="url(#clip0_117_1856)">
<g clip-path="url(#clip1_117_1856)">
<path d="M25.2475 3.63201C23.519 2.17258 13.587 -2.89724 0 2.26879C0 2.34646 0 3.77852 0 5.96082V30.6082H20.586C21.2925 31.1426 22.972 31.5217 24.9385 31.5217C26.901 31.5217 28.5845 31.1426 29.2935 30.6082H50V5.96082C50 3.77852 50 2.34646 50 2.26879C36.9725 -2.79927 26.5625 2.56182 25.2475 3.63201ZM23.4015 28.8438C23.4015 27.8725 13.737 22.1954 2.578 28.3897V4.35885C4.788 3.23968 7.7605 2.55432 11.0415 2.55432C17.871 2.55432 23.4015 4.53229 23.4015 8.20137V28.8438ZM47.5815 28.3897C36.4225 22.1954 26.764 27.8725 26.764 28.8438V8.20181C26.764 4.53273 32.295 2.55476 39.1175 2.55476C42.3985 2.55476 45.371 3.24012 47.5815 4.35929V28.3897Z" fill="#00A9DE"/>
</g>
</g>
<defs>
<clipPath id="clip0_117_1856">
<rect width="50" height="31.5217" fill="white"/>
</clipPath>
<clipPath id="clip1_117_1856">
<rect width="50" height="31.5217" fill="white"/>
</clipPath>
</defs>
</svg>
