<svg width="43" height="32" viewBox="0 0 43 32" fill="none" xmlns="http://www.w3.org/2000/svg">
<path d="M39.1291 20.5321C39.508 20.4796 39.7786 20.2172 39.8327 19.9023L42.7011 5.46815C42.7552 5.2582 42.7011 4.99576 42.5387 4.8383C42.4305 4.68084 42.1599 4.57586 41.9434 4.57586H14.829L13.7466 1.21665C13.6384 0.901721 13.3136 0.639282 12.9889 0.639282H7.41451C6.98154 0.639282 6.6027 1.0067 6.6027 1.4266C6.6027 1.8465 6.98154 2.21391 7.41451 2.21391H12.3936L13.476 5.57313L18.2386 20.4272L18.6174 21.5294L16.2361 25.571C16.0738 25.8334 16.0738 26.0958 16.2361 26.3583C16.3985 26.6207 16.6691 26.7257 16.9397 26.7257H19.2128C18.7257 27.1981 18.4551 27.8279 18.4551 28.5628C18.4551 30.0324 19.6457 31.1871 21.1611 31.1871C22.6765 31.1871 23.8671 30.0324 23.8671 28.5628C23.8671 27.8279 23.5965 27.1981 23.1094 26.7257H35.8819C35.3948 27.1981 35.1242 27.8279 35.1242 28.5628C35.1242 30.0324 36.3148 31.1871 37.8302 31.1871C39.3456 31.1871 40.5363 30.0324 40.5363 28.5628C40.5363 27.408 39.7244 26.4108 38.642 26.0433C38.642 25.9909 38.642 25.9384 38.642 25.9384C38.642 25.5185 38.2632 25.1511 37.8302 25.1511H18.3468L19.9163 22.3692L39.1291 20.5321Z" fill="#00A9DE"/>
<path d="M0.811807 6.15049H10.5535C10.9865 6.15049 11.3653 5.78308 11.3653 5.36318C11.3653 4.94328 11.0406 4.57586 10.6076 4.57586H0.811807C0.378843 4.57586 0 4.94328 0 5.36318C0 5.78308 0.378843 6.15049 0.811807 6.15049Z" fill="#00A9DE"/>
<path d="M4.87084 10.9794C4.87084 11.3993 5.24969 11.7667 5.68265 11.7667H11.3112C11.7441 11.7667 12.123 11.3993 12.123 10.9794C12.123 10.5595 11.7441 10.1921 11.3112 10.1921H5.68265C5.24969 10.1921 4.87084 10.5595 4.87084 10.9794Z" fill="#00A9DE"/>
<path d="M12.556 15.3358H0.811807C0.378843 15.3358 0 15.7033 0 16.1232C0 16.5431 0.378843 16.9105 0.811807 16.9105H12.556C12.9889 16.9105 13.3678 16.5431 13.3678 16.1232C13.3678 15.6508 12.9889 15.3358 12.556 15.3358Z" fill="#00A9DE"/>
<path d="M12.556 19.5349H6.65682C6.22386 19.5349 5.84501 19.9023 5.84501 20.3222C5.84501 20.7421 6.22386 21.1095 6.65682 21.1095H12.5018C12.9348 21.1095 13.3136 20.7421 13.3136 20.3222C13.3678 19.9023 12.9889 19.5349 12.556 19.5349Z" fill="#00A9DE"/>
</svg>
