<svg width="326" height="44" viewBox="0 0 326 44" fill="none" xmlns="http://www.w3.org/2000/svg">
<g clip-path="url(#clip0_18_27)">
<path d="M76.0982 0.413794H83.9753L90.9771 17.5172L91.5069 16.2529L92.8197 13.1034L94.5011 8.98851L96.1825 4.85058L97.4723 1.67816L97.979 0.413794H105.349L106.962 33.2414H99.3609L99.0385 14.069L93.6489 26.5747H88.075L82.5012 14.069L81.9945 33.2414H74.8544L76.0982 0.413794ZM124.282 22.7126C123.975 22.6514 123.653 22.6129 123.315 22.5976C122.977 22.5823 122.685 22.5746 122.44 22.5746C121.15 22.5746 120.106 22.7738 119.307 23.1723C118.509 23.5708 118.109 24.2605 118.109 25.2413C118.109 25.8543 118.255 26.3371 118.547 26.6896C118.839 27.0421 119.2 27.3026 119.63 27.4712C120.059 27.6398 120.512 27.7395 120.988 27.7701C121.464 27.8008 121.871 27.8161 122.209 27.8161C122.823 27.8161 123.514 27.7395 124.282 27.5862V22.7126ZM121.887 17.6552C122.132 17.6552 122.462 17.6629 122.877 17.6782C123.292 17.6935 123.76 17.7165 124.282 17.7472C124.251 16.5518 123.829 15.7778 123.015 15.4253C122.201 15.0728 121.149 14.8966 119.86 14.8966C119.153 14.8966 118.34 14.9809 117.418 15.1495C116.497 15.3181 115.499 15.5709 114.424 15.9081L113.687 13.3794C113.595 13.0422 113.464 12.5518 113.295 11.9081C113.126 11.2644 113.011 10.7587 112.95 10.3909C114.485 9.86979 115.937 9.4943 117.303 9.26441C118.67 9.03453 119.906 8.91959 121.011 8.91959C124.266 8.91959 126.785 9.69352 128.566 11.2414C130.347 12.7893 131.238 15.2644 131.238 18.6667V32.138C130.04 32.4751 128.658 32.8046 127.092 33.1265C125.526 33.4483 123.837 33.6092 122.025 33.6092C120.428 33.6092 118.977 33.4713 117.672 33.1954C116.366 32.9196 115.246 32.4598 114.309 31.8161C113.372 31.1725 112.65 30.3296 112.144 29.2874C111.637 28.2452 111.384 26.9731 111.384 25.4713C111.384 23.9695 111.698 22.7127 112.328 21.7012C112.958 20.6897 113.771 19.8851 114.769 19.2874C115.768 18.6897 116.888 18.2682 118.132 18.023C119.376 17.7778 120.627 17.6552 121.887 17.6552ZM143.998 10.069C144.366 9.82377 144.881 9.58621 145.541 9.35632C146.201 9.12644 146.946 9.01149 147.775 9.01149C148.481 9.01149 149.057 9.04216 149.502 9.10345C149.948 9.16474 150.17 9.18005 150.17 9.14938V15.2643C149.464 15.203 148.773 15.1877 148.097 15.2184C147.514 15.2797 146.907 15.3793 146.278 15.5172C145.648 15.6552 145.073 15.908 144.55 16.2759C143.936 16.705 143.499 17.2874 143.238 18.023C142.977 18.7586 142.846 19.7701 142.846 21.0575V33.2874H135.936V15.0345H132.205L135.153 9.1954H142.846V10.9885C143 10.8659 143.138 10.7433 143.261 10.6206C143.383 10.5287 143.506 10.4291 143.629 10.3218C143.752 10.2145 143.875 10.1303 143.998 10.069ZM154.086 6.66667H150.677L153.625 1.0115H161.042V33.2414H154.086V6.66667ZM160.996 20.8276L166.938 9.24138H174.815L168.642 20.5057C169.195 21.4866 169.771 22.5211 170.37 23.6092C170.969 24.6973 171.575 25.7931 172.189 26.8966C172.804 28 173.41 29.0958 174.009 30.1839C174.608 31.272 175.184 32.2912 175.736 33.2414H167.905L160.996 20.8276ZM187.345 8.96552C188.942 8.96552 190.377 9.18764 191.652 9.63209C192.926 10.0765 193.994 10.7969 194.853 11.7931C195.713 12.7892 196.373 14.0689 196.834 15.6321C197.295 17.1954 197.525 19.0804 197.525 21.2873V22L197.433 23.4482H184.535L183.567 23.3103C183.598 24.1992 183.698 24.9118 183.867 25.4482C184.036 25.9846 184.282 26.4061 184.604 26.7126C184.926 27.0192 185.318 27.2337 185.779 27.3564C186.239 27.479 186.761 27.5556 187.345 27.5863C188.297 27.6476 189.118 27.5097 189.809 27.1725C190.5 26.8354 191.153 26.1457 191.767 25.1035C192.719 25.4101 193.594 25.7012 194.393 25.9771C195.068 26.2223 195.683 26.4369 196.235 26.6208C196.788 26.8047 197.065 26.8813 197.065 26.8507C195.959 29.1495 194.615 30.8277 193.034 31.8851C191.452 32.9426 189.556 33.4714 187.345 33.4714C185.717 33.4714 184.243 33.2568 182.923 32.8277C181.602 32.3986 180.481 31.7012 179.56 30.7357C178.639 29.7702 177.925 28.5135 177.418 26.9656C176.911 25.4177 176.658 23.5249 176.658 21.2874C176.658 19.1112 176.911 17.2491 177.418 15.7012C177.925 14.1534 178.639 12.8812 179.56 11.8851C180.481 10.8891 181.602 10.1533 182.923 9.67825C184.243 9.20317 185.717 8.96552 187.345 8.96552ZM189.878 18.1609L190.569 18.2529C190.508 17.1801 190.224 16.3448 189.717 15.7471C189.211 15.1494 188.42 14.8506 187.345 14.8506C186.116 14.8506 185.234 15.1494 184.696 15.7471C184.159 16.3448 183.829 17.1801 183.706 18.2529C183.859 18.2222 183.997 18.1992 184.12 18.1839C184.243 18.1686 184.381 18.1609 184.535 18.1609H189.878ZM203.007 14.9885H200.151V9.1954H203.007V2.66667H209.917V9.1954H215.629L212.404 14.9885H209.686L209.917 16.4598V23.6782C209.917 24.4751 209.97 25.1188 210.078 25.6092C210.185 26.0996 210.354 26.4828 210.584 26.7586C210.815 27.0345 211.107 27.2261 211.46 27.3333C211.813 27.4406 212.22 27.4943 212.68 27.4943C213.018 27.4943 213.433 27.456 213.924 27.3793C214.416 27.3027 214.938 27.2184 215.49 27.1264L215.859 30.2069L216.135 32.9655C215.245 33.1494 214.431 33.2874 213.694 33.3793C212.957 33.4713 212.204 33.5172 211.437 33.5172C208.581 33.5172 206.462 32.8583 205.08 31.5402C203.698 30.2222 203.007 28.046 203.007 25.0115V14.9885ZM221.156 14.8966L216.55 14.8966L219.59 9.24142H226.869L227.467 11.9081C228.174 11.0805 229.041 10.3985 230.07 9.86211C231.099 9.3257 232.304 9.05752 233.686 9.05752C235.037 9.05752 236.297 9.29508 237.464 9.77016C238.631 10.2452 239.644 10.9732 240.504 11.954C241.364 12.9348 242.039 14.1685 242.531 15.6552C243.022 17.1418 243.268 18.912 243.268 20.9655C243.268 24.9501 242.147 28.0382 239.905 30.2299C237.663 32.4216 234.5 33.5172 230.416 33.5172C229.648 33.5172 228.88 33.4713 228.112 33.3793V44H221.157L221.156 14.8966ZM228.112 27.2644C228.88 27.4176 229.663 27.4943 230.461 27.4943C232.181 27.4943 233.548 26.9885 234.561 25.9771C235.575 24.9656 236.081 23.3564 236.081 21.1495C236.081 19.4636 235.728 18.069 235.022 16.9656C234.316 15.8621 233.241 15.3104 231.797 15.3104C230.477 15.3104 229.532 15.7778 228.964 16.7127C228.396 17.6475 228.112 18.7893 228.112 20.138V27.2644ZM247.413 1.09618e-06L254.369 4.60394e-05V23.6782C254.369 24.4751 254.415 25.1188 254.507 25.6092C254.599 26.0997 254.745 26.4828 254.945 26.7587C255.145 27.0345 255.398 27.2184 255.705 27.3104C256.012 27.4023 256.381 27.4483 256.811 27.4483C257.026 27.4483 257.271 27.4406 257.548 27.4253C257.824 27.41 258.285 27.3411 258.93 27.2184L259.344 32.9656C258.546 33.2108 257.801 33.364 257.11 33.4253C256.419 33.4866 255.797 33.5172 255.244 33.5172C252.788 33.5172 250.868 32.8506 249.486 31.5172C248.104 30.1839 247.413 28.0154 247.413 25.0115V1.09618e-06ZM274.085 22.7126C273.778 22.6514 273.455 22.6129 273.118 22.5976C272.78 22.5823 272.488 22.5746 272.242 22.5746C270.953 22.5746 269.909 22.7738 269.11 23.1723C268.311 23.5708 267.912 24.2605 267.912 25.2413C267.912 25.8543 268.058 26.3371 268.35 26.6896C268.642 27.0421 269.003 27.3026 269.432 27.4712C269.862 27.6398 270.315 27.7395 270.791 27.7701C271.267 27.8008 271.674 27.8161 272.012 27.8161C272.626 27.8161 273.317 27.7395 274.085 27.5862V22.7126ZM271.69 17.6552C271.935 17.6552 272.265 17.6629 272.68 17.6782C273.094 17.6935 273.563 17.7165 274.085 17.7472C274.054 16.5518 273.632 15.7778 272.818 15.4253C272.004 15.0728 270.952 14.8966 269.663 14.8966C268.956 14.8966 268.142 14.9809 267.221 15.1495C266.3 15.3181 265.302 15.5709 264.227 15.9081L263.49 13.3794C263.398 13.0422 263.267 12.5518 263.098 11.9081C262.929 11.2644 262.814 10.7587 262.753 10.3909C264.288 9.86979 265.739 9.4943 267.106 9.26441C268.472 9.03453 269.709 8.91959 270.814 8.91959C274.069 8.91959 276.587 9.69352 278.369 11.2414C280.15 12.7893 281.041 15.2644 281.041 18.6667V32.138C279.843 32.4751 278.461 32.8046 276.895 33.1265C275.328 33.4483 273.64 33.6092 271.828 33.6092C270.231 33.6092 268.78 33.4713 267.474 33.1954C266.169 32.9196 265.048 32.4598 264.112 31.8161C263.175 31.1725 262.453 30.3296 261.947 29.2874C261.44 28.2452 261.187 26.9731 261.187 25.4713C261.187 23.9695 261.501 22.7127 262.131 21.7012C262.76 20.6897 263.574 19.8851 264.572 19.2874C265.57 18.6897 266.691 18.2682 267.935 18.023C269.179 17.7778 270.43 17.6552 271.69 17.6552ZM304.073 30.6667C302.845 31.6475 301.524 32.3755 300.112 32.8506C298.699 33.3257 297.256 33.5632 295.781 33.5632C294.185 33.5632 292.68 33.3486 291.267 32.9195C289.855 32.4904 288.618 31.7931 287.559 30.8276C286.499 29.8621 285.663 28.6054 285.048 27.0575C284.434 25.5096 284.127 23.6322 284.127 21.4253C284.127 19.2491 284.434 17.3869 285.048 15.8391C285.663 14.2913 286.499 13.0191 287.559 12.023C288.618 11.0269 289.854 10.2912 291.267 9.81609C292.68 9.34101 294.185 9.10345 295.781 9.10345C296.764 9.10345 297.839 9.24138 299.006 9.51724C300.173 9.7931 301.34 10.2069 302.507 10.7586L299.467 15.7241C298.945 15.4789 298.33 15.3027 297.624 15.1954C296.918 15.0882 296.304 15.0345 295.782 15.0345C294.369 15.0345 293.194 15.5326 292.258 16.5288C291.321 17.525 290.853 19.1571 290.853 21.4253C290.853 22.5901 290.975 23.5403 291.221 24.2759C291.467 25.0115 291.812 25.6092 292.258 26.069C292.703 26.5288 293.225 26.8659 293.824 27.0805C294.423 27.2951 295.075 27.433 295.782 27.4943C296.734 27.5863 297.678 27.5096 298.615 27.2644C299.551 27.0192 300.388 26.6207 301.125 26.069L304.073 30.6667ZM315.82 8.96552C317.417 8.96552 318.852 9.18764 320.127 9.63209C321.401 10.0765 322.468 10.7969 323.328 11.7931C324.188 12.7892 324.848 14.0689 325.309 15.6321C325.77 17.1954 326 19.0804 326 21.2873V22L325.908 23.4482H313.01L312.042 23.3103C312.073 24.1992 312.173 24.9118 312.342 25.4482C312.511 25.9846 312.756 26.4061 313.079 26.7126C313.401 27.0192 313.793 27.2337 314.253 27.3564C314.714 27.479 315.236 27.5556 315.82 27.5863C316.772 27.6476 317.593 27.5097 318.284 27.1725C318.975 26.8354 319.628 26.1457 320.242 25.1035C321.194 25.4101 322.069 25.7012 322.868 25.9771C323.543 26.2223 324.157 26.4369 324.71 26.6208C325.263 26.8047 325.539 26.8813 325.539 26.8507C324.434 29.1495 323.09 30.8277 321.509 31.8851C319.927 32.9426 318.031 33.4714 315.82 33.4714C314.192 33.4714 312.718 33.2568 311.397 32.8277C310.077 32.3986 308.956 31.7012 308.035 30.7357C307.113 29.7702 306.399 28.5135 305.893 26.9656C305.386 25.4177 305.133 23.5249 305.133 21.2874C305.133 19.1112 305.386 17.2491 305.893 15.7012C306.399 14.1534 307.113 12.8812 308.035 11.8851C308.956 10.8891 310.077 10.1533 311.397 9.67825C312.718 9.20317 314.192 8.96552 315.82 8.96552ZM318.353 18.1609L319.044 18.2529C318.983 17.1801 318.699 16.3448 318.192 15.7471C317.685 15.1494 316.895 14.8506 315.82 14.8506C314.591 14.8506 313.708 15.1494 313.171 15.7471C312.634 16.3448 312.303 17.1801 312.181 18.2529C312.334 18.2222 312.472 18.1992 312.595 18.1839C312.718 18.1686 312.856 18.1609 313.01 18.1609H318.353Z" fill="#00A9DE"/>
<path d="M52.2791 28.2316C52.7852 28.1595 53.1468 27.7986 53.2191 27.3656L57.0514 7.51867C57.1237 7.22998 57.0514 6.86913 56.8345 6.65262C56.6899 6.43611 56.3283 6.29176 56.0391 6.29176H19.8125L18.3664 1.67284C18.2217 1.23982 17.7879 0.878967 17.354 0.878967H9.90627C9.3278 0.878967 8.82164 1.38416 8.82164 1.96153C8.82164 2.53889 9.3278 3.04409 9.90627 3.04409H16.5587L18.0048 7.66301L24.368 28.0873L24.8741 29.6029L21.6926 35.16C21.4756 35.5209 21.4756 35.8817 21.6926 36.2426C21.9095 36.6034 22.271 36.7478 22.6326 36.7478H25.6695C25.0187 37.3973 24.6572 38.2634 24.6572 39.2737C24.6572 41.2945 26.248 42.8823 28.2726 42.8823C30.2973 42.8823 31.8881 41.2945 31.8881 39.2737C31.8881 38.2634 31.5265 37.3973 30.8757 36.7478H47.9406C47.2898 37.3973 46.9282 38.2634 46.9282 39.2737C46.9282 41.2945 48.519 42.8823 50.5437 42.8823C52.5683 42.8823 54.1591 41.2945 54.1591 39.2737C54.1591 37.686 53.0745 36.3148 51.6283 35.8096C51.6283 35.7374 51.6283 35.6652 51.6283 35.6652C51.6283 35.0878 51.1221 34.5826 50.5437 34.5826H24.5126L26.6095 30.7576L52.2791 28.2316Z" fill="#00A9DE"/>
<path d="M1.08463 8.4569H14.1002C14.6786 8.4569 15.1848 7.9517 15.1848 7.37434C15.1848 6.79697 14.7509 6.29178 14.1725 6.29178H1.08463C0.50616 6.29178 0 6.79697 0 7.37434C0 7.9517 0.50616 8.4569 1.08463 8.4569Z" fill="#00A9DE"/>
<path d="M6.50777 15.0966C6.50777 15.674 7.01393 16.1792 7.59239 16.1792H15.1125C15.6909 16.1792 16.1971 15.674 16.1971 15.0966C16.1971 14.5192 15.6909 14.014 15.1125 14.014H7.59239C7.01393 14.014 6.50777 14.5192 6.50777 15.0966Z" fill="#00A9DE"/>
<path d="M16.7756 21.0867H1.08463C0.50616 21.0867 0 21.5919 0 22.1693C0 22.7467 0.50616 23.2518 1.08463 23.2518H16.7756C17.354 23.2518 17.8602 22.7467 17.8602 22.1693C17.8602 21.5198 17.354 21.0867 16.7756 21.0867Z" fill="#00A9DE"/>
<path d="M16.7756 26.8604H8.89395C8.31548 26.8604 7.80932 27.3656 7.80932 27.9429C7.80932 28.5203 8.31548 29.0255 8.89395 29.0255H16.7033C17.2817 29.0255 17.7879 28.5203 17.7879 27.9429C17.8602 27.3656 17.354 26.8604 16.7756 26.8604Z" fill="#00A9DE"/>
</g>
<defs>
<clipPath id="clip0_18_27">
<rect width="326" height="44" fill="white"/>
</clipPath>
</defs>
</svg>
